<?xml version="1.0" standalone="no"?>
<!DOCTYPE svg PUBLIC "-//W3C//DTD SVG 20010904//EN"
 "http://www.w3.org/TR/2001/REC-SVG-20010904/DTD/svg10.dtd">
<svg version="1.0" xmlns="http://www.w3.org/2000/svg"
 width="1625.000000pt" height="1625.000000pt" viewBox="0 0 1625.000000 1625.000000"
 preserveAspectRatio="xMidYMid meet">
<metadata>
Created by potrace 1.11, written by Peter Selinger 2001-2013
</metadata>
<g transform="translate(0.000000,1625.000000) scale(0.100000,-0.100000)"
fill="#000000" stroke="none">
<path d="M206 12833 c30 -104 63 -219 75 -258 11 -38 63 -218 115 -400 53
-181 129 -447 171 -590 42 -143 84 -289 93 -325 15 -53 83 -290 175 -605 25
-87 64 -223 130 -455 36 -124 69 -238 74 -255 11 -36 71 -243 77 -265 2 -8 26
-94 55 -190 28 -96 54 -188 59 -205 4 -16 42 -149 85 -295 42 -146 78 -272 80
-280 2 -8 45 -157 95 -330 134 -459 207 -714 210 -725 4 -18 0 -36 -7 -32 -5
3 -46 8 -93 12 -47 4 -87 8 -90 10 -3 2 -43 6 -90 10 -47 4 -92 8 -100 10 -8
2 -53 6 -100 10 -47 4 -87 8 -90 10 -3 2 -41 6 -85 10 -44 4 -91 8 -105 10
-146 17 -155 18 -144 4 6 -8 44 -86 84 -174 40 -88 90 -198 112 -245 22 -47
53 -112 68 -145 15 -33 91 -197 169 -364 103 -220 138 -306 129 -312 -6 -4
-57 -22 -112 -39 -56 -17 -110 -35 -121 -40 -18 -7 -737 -244 -995 -327 -58
-18 -111 -36 -118 -38 -9 -3 -3 -18 20 -49 18 -24 41 -55 50 -67 9 -13 97
-133 195 -265 98 -133 187 -254 198 -269 56 -78 63 -82 195 -110 69 -15 136
-29 150 -31 14 -3 53 -11 88 -19 34 -8 77 -17 95 -20 36 -7 240 -50 302 -65
22 -5 137 -30 255 -56 118 -25 267 -57 330 -71 63 -13 122 -25 130 -27 8 -1
26 -5 40 -9 23 -6 37 -9 110 -22 14 -3 43 -9 65 -14 22 -6 72 -17 110 -25 39
-8 133 -29 210 -45 77 -17 158 -33 180 -37 22 -3 43 -8 46 -10 6 -3 238 -54
309 -67 14 -3 162 -35 330 -71 168 -37 314 -68 325 -70 11 -3 54 -12 95 -21
41 -9 84 -18 95 -21 11 -2 34 -7 50 -10 17 -2 46 -9 65 -14 19 -5 46 -11 60
-13 14 -3 174 -37 356 -76 182 -39 340 -73 350 -75 10 -3 51 -11 89 -20 39 -9
81 -17 95 -20 31 -5 244 -51 325 -71 33 -8 75 -16 93 -20 26 -4 121 -24 192
-40 106 -23 384 -83 490 -106 131 -27 358 -76 490 -105 36 -8 74 -16 85 -18
11 -2 97 -20 190 -41 94 -20 179 -38 190 -41 11 -2 178 -37 370 -79 193 -41
359 -77 370 -80 121 -24 123 -25 205 -44 44 -10 65 -14 125 -26 17 -3 68 -14
115 -25 47 -10 87 -14 90 -10 3 5 5 268 5 584 -1 317 1 579 4 584 3 4 230 7
504 7 l497 0 0 -102 0 -103 -313 0 -312 0 0 -215 c0 -136 4 -215 10 -216 6 0
116 -1 245 -2 l235 -2 1 -90 c0 -49 -1 -95 -3 -101 -3 -8 -74 -11 -231 -12
-125 0 -234 -1 -242 -1 -23 -1 -23 -423 0 -427 8 -1 47 -9 85 -17 437 -95 597
-128 600 -125 2 1 6 107 10 233 4 127 8 280 10 340 2 61 6 196 9 300 6 192 13
395 21 650 2 77 7 226 10 330 3 105 8 240 10 300 2 61 7 209 10 330 4 121 8
267 10 325 2 58 6 204 10 325 4 121 8 237 9 258 2 21 -2 38 -8 39 -6 0 -22 2
-36 3 -14 2 -43 5 -65 8 -22 3 -71 9 -110 12 -38 4 -77 8 -85 10 -8 2 -51 6
-95 9 -44 4 -91 9 -105 11 -14 2 -56 7 -93 10 -37 4 -76 8 -85 9 -9 2 -53 7
-97 11 -44 4 -93 9 -110 11 -178 21 -249 32 -375 59 -14 2 -50 10 -80 16 -86
17 -432 105 -570 144 -69 20 -132 37 -140 39 -36 9 -179 55 -535 172 -399 131
-444 147 -776 270 l-207 76 -38 52 c-22 28 -42 56 -47 61 -7 10 -136 175 -160
205 -7 9 -32 42 -57 75 -25 33 -61 80 -81 105 -20 25 -175 225 -344 445 -170
220 -327 423 -349 451 -23 29 -50 64 -61 80 -11 15 -38 50 -61 78 -22 28 -76
98 -120 155 -146 191 -165 216 -182 236 -9 11 -37 47 -62 80 -25 33 -49 65
-55 71 -5 7 -34 43 -63 80 -63 83 -683 887 -716 929 -49 62 -388 501 -404 523
-9 13 -24 32 -32 42 -8 10 -71 91 -140 180 -69 89 -178 230 -243 313 -145 188
-184 239 -387 502 -89 116 -207 269 -263 341 l-102 131 -115 12 c-63 7 -128
14 -145 16 -16 2 -61 7 -100 10 -38 4 -79 8 -90 10 -11 3 -51 7 -90 10 -38 3
-83 8 -100 10 -16 2 -79 9 -140 15 -60 6 -123 13 -140 15 -16 2 -68 7 -115 10
-47 4 -87 8 -90 10 -3 2 -41 6 -85 10 -44 4 -87 9 -95 10 -8 2 -49 6 -90 9
-41 4 -86 9 -100 11 -14 3 -52 7 -85 10 -33 3 -80 7 -105 10 -25 2 -68 7 -97
10 l-51 5 54 -187z m3314 -3161 c25 -6 61 -14 80 -17 19 -3 67 -17 106 -30
353 -119 641 -390 777 -731 69 -174 92 -295 90 -489 -2 -388 -187 -754 -498
-992 -151 -114 -331 -195 -519 -234 -175 -35 -382 -31 -550 12 -481 122 -844
502 -942 986 -19 94 -26 323 -13 413 23 165 85 339 174 487 60 102 90 139 201
249 97 97 182 158 320 232 93 50 227 92 369 117 83 14 341 12 405 -3z m5525
-2868 c91 -19 185 -65 226 -111 40 -46 75 -122 87 -189 10 -59 9 -302 -3 -359
-19 -95 -90 -190 -174 -232 l-44 -21 52 -26 c88 -45 141 -116 166 -224 8 -33
13 -143 14 -287 2 -161 6 -251 16 -287 7 -29 11 -56 9 -59 -2 -4 -78 -7 -169
-8 -149 0 -166 2 -175 18 -18 35 -22 87 -25 316 -1 127 -6 246 -9 265 -14 70
-67 124 -134 136 -15 3 -66 7 -114 8 l-88 2 0 -80 c-1 -45 -1 -212 -1 -372 l0
-291 -170 -1 c-93 0 -170 3 -170 6 -1 4 -2 413 -3 910 l-2 902 321 0 c238 -1
338 -5 390 -16z"/>
<path d="M3225 9263 c-33 -7 -82 -26 -110 -41 -49 -28 -53 -28 -190 -26 -110
2 -154 -1 -207 -15 -205 -56 -379 -196 -473 -383 -25 -49 -47 -103 -50 -120
-3 -17 -8 -35 -11 -39 -20 -33 -23 -249 -4 -319 7 -25 13 -52 15 -60 16 -80
104 -227 183 -307 158 -160 405 -246 611 -212 93 15 112 20 168 41 173 64 314
193 397 363 54 109 77 207 77 327 0 86 1 91 39 149 45 70 57 103 68 184 22
171 -69 342 -226 422 -94 48 -183 59 -287 36z"/>
<path d="M8723 6562 c-41 -3 -43 -5 -43 -35 -1 -40 -1 -510 0 -519 0 -3 49 -5
108 -4 126 3 170 19 204 75 22 34 23 46 23 213 0 198 -5 215 -76 250 -34 17
-132 26 -216 20z"/>
<path d="M14128 6825 c-2 -1 -46 -5 -98 -8 -333 -20 -552 -152 -593 -357 -9
-41 -12 -214 -12 -587 l1 -528 24 -64 c44 -115 161 -210 320 -260 120 -37 230
-49 420 -45 180 4 196 5 314 34 193 48 317 145 367 286 19 57 20 81 20 589 1
292 -2 546 -6 565 -39 214 -268 350 -615 366 -58 3 -113 7 -122 8 -9 2 -18 3
-20 1z m178 -285 c40 -15 81 -57 94 -94 6 -21 9 -220 8 -566 l-3 -535 -24 -34
c-27 -38 -87 -68 -152 -76 l-45 -5 2 62 c2 81 -23 130 -81 158 -23 11 -53 21
-68 22 -15 1 -27 6 -27 9 0 4 -2 14 -6 22 -3 9 6 19 25 27 98 40 138 148 91
244 -29 61 -80 91 -152 91 l-59 0 3 295 c3 331 2 325 81 370 65 37 228 42 313
10z"/>
<path d="M9875 6788 c-2 -7 -11 -49 -20 -93 -22 -114 -24 -124 -35 -185 -6
-30 -12 -66 -15 -80 -3 -14 -17 -83 -30 -155 -14 -71 -27 -137 -30 -145 -3 -8
-7 -29 -9 -45 -2 -17 -15 -88 -29 -160 -15 -71 -29 -141 -31 -155 -3 -14 -16
-83 -30 -155 -15 -71 -28 -141 -31 -154 -2 -14 -9 -47 -14 -75 -6 -28 -13 -62
-15 -76 -3 -14 -12 -59 -20 -100 -20 -104 -25 -130 -32 -170 -3 -19 -8 -38
-11 -43 -2 -4 69 -6 158 -5 l163 3 7 40 c4 22 10 56 14 75 16 88 35 196 35
203 0 4 96 7 214 7 l214 0 26 -142 c15 -79 29 -153 31 -165 5 -23 7 -23 181
-23 l176 0 -6 28 c-4 15 -9 39 -11 53 -3 14 -27 140 -55 280 -28 140 -53 268
-56 284 -3 17 -9 48 -14 70 -5 22 -12 56 -15 75 -3 19 -8 42 -10 50 -2 8 -7
33 -10 56 -3 22 -10 55 -15 73 -5 17 -9 34 -9 36 0 6 -14 97 -16 105 -2 5 -15
70 -21 100 -1 8 -14 76 -29 150 -15 74 -29 144 -31 155 -2 11 -16 82 -30 158
l-28 137 -253 0 c-194 0 -255 -3 -258 -12z m254 -375 c17 -99 20 -115 26 -143
3 -14 14 -77 25 -140 11 -63 22 -126 25 -140 3 -14 12 -63 20 -110 8 -47 17
-96 20 -110 3 -14 8 -38 10 -55 3 -16 10 -54 15 -84 6 -30 8 -57 5 -59 -7 -7
-325 -8 -325 -1 0 3 9 55 20 115 10 60 22 125 25 144 8 50 82 458 101 563 9
48 18 87 19 87 2 0 8 -30 14 -67z"/>
<path d="M10899 6793 c0 -5 -1 -412 -2 -905 l-2 -898 157 0 158 0 2 658 3 657
54 -165 c29 -91 64 -196 76 -235 13 -38 73 -225 135 -415 116 -359 127 -392
140 -425 5 -11 11 -32 14 -47 l6 -28 180 0 180 0 0 905 0 905 -155 0 -155 0
-1 -542 -1 -543 -58 175 c-52 156 -169 517 -262 807 l-33 103 -217 0 c-120 0
-218 -3 -219 -7z"/>
<path d="M12250 5895 l0 -906 293 1 c317 1 396 10 489 54 98 46 180 154 203
266 4 19 8 278 9 574 3 569 1 597 -44 699 -26 59 -90 124 -157 160 -92 49
-157 57 -490 57 l-303 0 0 -905z m595 629 c32 -15 63 -57 71 -97 10 -48 5
-1036 -5 -1074 -12 -43 -42 -76 -81 -91 -14 -5 -77 -10 -141 -11 l-115 -2 0
643 0 643 55 5 c84 7 182 0 216 -16z"/>
<path d="M15037 5908 c1 -491 2 -899 2 -905 1 -10 33 -13 126 -13 l125 0 1
638 1 637 34 -195 c18 -107 36 -213 39 -235 3 -22 10 -65 15 -95 16 -97 19
-114 25 -155 3 -22 8 -51 11 -65 8 -44 11 -64 18 -113 4 -27 9 -56 11 -65 1
-10 8 -51 15 -92 6 -41 16 -95 20 -120 5 -25 12 -67 15 -93 l6 -48 137 3 137
3 7 40 c4 22 10 65 13 95 4 30 9 62 10 70 2 8 8 51 15 95 6 44 13 91 16 105 2
14 6 45 9 70 3 25 8 56 10 70 5 25 8 47 20 125 3 22 10 67 15 100 5 33 12 80
15 105 3 25 8 52 10 60 2 8 7 38 10 66 3 28 7 59 9 70 2 10 7 44 12 74 4 30 9
58 10 63 1 4 2 23 3 44 0 20 4 33 7 30 4 -4 7 -295 6 -647 l0 -640 136 0 137
0 0 905 0 905 -202 0 c-162 0 -203 -3 -203 -13 0 -11 -11 -90 -35 -247 -2 -14
-6 -45 -10 -70 -10 -66 -13 -88 -24 -160 -6 -36 -13 -83 -16 -105 -4 -22 -8
-51 -10 -65 -4 -21 -21 -140 -41 -280 -3 -19 -12 -75 -19 -125 -8 -49 -17
-112 -21 -140 -9 -73 -18 -77 -28 -10 -4 22 -19 121 -36 220 -16 99 -31 196
-34 215 -3 19 -8 46 -10 60 -5 22 -21 123 -31 185 -2 11 -6 38 -10 60 -3 22
-15 96 -26 165 -11 69 -22 136 -24 149 -2 13 -8 45 -12 70 -4 25 -8 49 -9 54
-1 4 -2 14 -3 22 -1 13 -31 15 -203 15 l-203 0 2 -892z"/>
<path d="M11660 4805 c-121 -27 -205 -68 -263 -129 -34 -36 -73 -115 -82 -166
-4 -19 -7 -241 -7 -492 0 -505 2 -524 63 -608 42 -57 62 -74 130 -110 91 -47
169 -63 324 -66 169 -3 269 13 365 60 93 45 154 111 185 201 15 42 18 93 19
320 1 149 0 277 -2 285 -3 13 -38 15 -255 15 l-252 0 0 -110 0 -110 60 -2 c33
-1 70 -2 83 -2 l24 -1 -4 -172 c-3 -148 -6 -177 -21 -200 -26 -38 -98 -63
-175 -61 -87 1 -136 25 -161 77 -19 39 -20 64 -19 491 0 408 2 454 18 491 24
56 72 79 170 79 111 0 170 -36 185 -114 2 -9 4 -58 4 -109 l1 -92 172 2 172 3
0 89 c1 113 -15 191 -49 247 -53 86 -133 139 -260 175 -82 22 -336 28 -425 9z"/>
<path d="M15515 4804 c-224 -47 -338 -174 -338 -376 1 -76 4 -95 31 -152 53
-113 159 -209 373 -337 233 -140 315 -236 303 -355 -8 -83 -75 -128 -190 -127
-139 2 -184 46 -184 179 l0 81 -174 0 -173 0 2 -87 c4 -142 42 -226 137 -295
103 -77 228 -106 433 -101 257 6 412 78 481 225 34 72 42 203 17 278 -46 136
-126 209 -479 433 -97 62 -168 130 -195 187 -26 55 -25 132 4 174 33 49 69 64
157 64 130 0 184 -48 181 -162 l-1 -53 174 0 173 0 -3 68 c-3 79 -14 118 -48
176 -47 81 -154 151 -271 177 -81 18 -329 20 -410 3z"/>
<path d="M9599 4802 c-12 -2 -14 -105 -12 -720 1 -394 2 -720 2 -723 1 -6 102
-32 178 -45 15 -3 75 -16 133 -29 160 -36 188 -38 428 -39 l222 -1 0 113 0
112 -300 0 -300 0 -2 667 -3 667 -166 0 c-91 1 -172 0 -180 -2z"/>
<path d="M10720 4802 c-16 -6 -14 -1552 3 -1553 6 0 87 -1 180 -2 l167 -2 1
35 c4 193 0 1512 -5 1517 -7 7 -327 11 -346 5z"/>
<path d="M12640 4802 c-16 -6 -14 -1552 3 -1553 82 -5 340 -2 344 5 3 5 6 154
6 332 0 178 3 325 6 325 15 3 387 5 396 2 8 -3 11 -108 10 -321 0 -174 1 -324
3 -332 3 -13 29 -15 175 -13 95 1 177 2 183 2 9 1 12 206 11 776 l0 775 -21 1
c-113 6 -346 2 -349 -6 -1 -5 -2 -153 -1 -328 0 -199 -3 -320 -9 -324 -5 -3
-99 -6 -207 -7 l-197 -1 1 333 c1 215 -3 332 -9 333 -29 3 -336 4 -345 1z"/>
<path d="M13939 4795 c-4 -30 -4 -192 -1 -202 3 -10 50 -13 191 -13 l187 0 0
-665 c-1 -366 1 -665 4 -666 33 -5 353 -2 356 3 3 4 5 305 5 668 l1 660 189 0
189 0 1 35 c0 45 0 150 0 173 -1 16 -35 17 -561 17 -366 0 -560 -3 -561 -10z"/>
</g>
</svg>
